<?xml version="1.0" encoding="UTF-8"?>
<svg width="40px" height="51px" viewBox="0 0 40 51" version="1.1" xmlns="http://www.w3.org/2000/svg" xmlns:xlink="http://www.w3.org/1999/xlink">
    <title>F92555E7-DE91-4BFC-96F3-5104A3528BBC</title>
    <defs>
        <filter id="filter-1">
            <feColorMatrix in="SourceGraphic" type="matrix" values="0 0 0 0 1.000000 0 0 0 0 1.000000 0 0 0 0 1.000000 0 0 0 1.000000 0"></feColorMatrix>
        </filter>
    </defs>
    <g id="Page-1" stroke="none" stroke-width="1" fill="none" fill-rule="evenodd" stroke-linejoin="bevel">
        <g id="CD---Affiliate-exclusive-page_D" transform="translate(-1046.000000, -1814.000000)">
            <g id="Group-4" transform="translate(934.000000, 1816.000000)" filter="url(#filter-1)">
                <g transform="translate(114.000000, 0.000000)">
                    <path d="M3.13573971,36.7226667 L2.86578546,36.7226667 C1.29028978,36.7226667 0,35.7770714 0,34.6210952 L0,22.3182857 C0,21.1623095 1.29028978,20.2167143 2.86578546,20.2167143 L3.13573971,20.2167143 C4.71123538,20.2167143 6,21.1623095 6,22.3182857 L6,34.6210952 C6,35.7770714 4.71123538,36.7226667 3.13573971,36.7226667 Z" id="Stroke-1" stroke="#7AE5D8" stroke-width="3"></path>
                    <path d="M33.1958198,36.7226667 L33.4672992,36.7226667 C35.0412697,36.7226667 36.3315595,35.7770714 36.3315595,34.6210952 L36.3315595,22.3182857 C36.3315595,21.1623095 35.0412697,20.2167143 33.4672992,20.2167143 L33.1958198,20.2167143 C31.6203241,20.2167143 30.3315595,21.1623095 30.3315595,22.3182857 L30.3315595,34.6210952 C30.3315595,35.7770714 31.6203241,36.7226667 33.1958198,36.7226667 Z" id="Stroke-3" stroke="#7AE5D8" stroke-width="3"></path>
                    <path d="M0.000447619048,22.2679286 L0.000447619048,18.1655 C0.000447619048,8.1332381 8.13368571,-6.03961325e-14 18.1659476,-6.03961325e-14 C28.1982095,-6.03961325e-14 36.3314476,8.1332381 36.3314476,18.1655 L36.3314476,22.2679286" id="Stroke-5" stroke="#7AE5D8" stroke-width="3"></path>
                    <path d="M36.3312238,34.6210952 C36.3312238,39.152119 31.9758905,44.6052381 27.4459857,44.6052381 L23.9299381,44.6052381" id="Stroke-7" stroke="#7AE5D8" stroke-width="3"></path>
                    <path d="M14.942531,44.4197524 L14.942531,44.193577 C14.942531,42.8809976 15.8881262,41.8073 17.0441024,41.8073 L21.1901738,41.8073 C22.347269,41.8073 23.2928643,42.8809976 23.2928643,44.193577 L23.2928643,44.4197524 C23.2928643,45.7323318 22.347269,46.8073 21.1901738,46.8073 L17.0441024,46.8073 C15.8881262,46.8073 14.942531,45.7323318 14.942531,44.4197524 Z" id="Stroke-9" stroke="#7AE5D8" stroke-width="3"></path>
                </g>
            </g>
        </g>
    </g>
</svg>