<?xml version="1.0" encoding="UTF-8"?>
<svg width="49px" height="36px" viewBox="0 0 49 36" version="1.1" xmlns="http://www.w3.org/2000/svg" xmlns:xlink="http://www.w3.org/1999/xlink">
    <title>F3981616-9AA8-42D9-938C-52538C16E2B9</title>
    <g id="Page-1" stroke="none" stroke-width="1" fill="none" fill-rule="evenodd">
        <g id="CD---Affiliate-exclusive-page_D" transform="translate(-189.000000, -1821.000000)" fill="#FFFFFF" fill-rule="nonzero">
            <g id="Group-6" transform="translate(66.000000, 1821.000000)">
                <path d="M167.558777,17.1929832 L164.744133,12.5044937 C162.905212,9.44154028 159.902527,7.57074538 156.400391,7.26426446 L156.400391,1.42480211 C156.400391,0.637821594 155.757759,0 154.964844,0 L124.435547,0 C123.642632,0 123,0.637821594 123,1.42480211 L123,30.2243568 C123,31.0113374 123.642632,31.6491589 124.435547,31.6491589 L127.708519,31.6491589 C128.227036,34.1299472 130.445778,36 133.09668,36 C135.747582,36 137.966324,34.1299472 138.48484,31.6491589 L154.964844,31.6491589 C155.039986,31.6491589 155.113632,31.6417382 155.185783,31.6306069 L157.276672,31.6306069 C157.788086,34.1206712 160.011314,36 162.668945,36 C165.326576,36 167.549805,34.1206712 168.061218,31.6306069 L170.564453,31.6306069 C171.357368,31.6306069 172,30.9927853 172,30.2058047 L172,21.6569921 C172,19.2140501 170.013039,17.2230376 167.558777,17.1929832 Z M133.112932,33.965717 C131.312857,33.965717 129.848498,32.5123188 129.848498,30.725716 C129.848498,28.9391133 131.312857,27.4857151 133.112932,27.4857151 C134.913008,27.4857151 136.377367,28.9391133 136.377367,30.725716 C136.377367,32.5123188 134.913008,33.965717 133.112932,33.965717 Z M154.076379,29.312847 L138.257214,29.312847 C137.494723,27.0660239 135.353374,25.4425255 132.835443,25.4425255 C130.317513,25.4425255 128.5571,27.0660239 127.794609,29.312847 L125.324012,29.312847 L125.324012,2.33631189 L154.076379,2.33631189 L154.076379,29.312847 Z M162.764835,27.4857151 C164.564911,27.4857151 166.02927,28.9391133 166.02927,30.725716 C166.02927,32.5123188 164.564911,33.965717 162.764835,33.965717 C160.964759,33.965717 159.500401,32.5123188 159.500401,30.725716 C159.500401,28.9391133 160.964759,27.4857151 162.764835,27.4857151 Z M156.400764,10.1268552 C158.886803,10.4136708 160.948906,11.7501649 162.277534,13.9630607 L164.216644,17.1926121 L160.324219,17.1926121 C159.531303,17.1926121 158.888672,17.8304337 158.888672,18.6174142 C158.888672,19.4043948 159.531303,20.0422164 160.324219,20.0422164 L167.501953,20.0422164 C168.39917,20.0422164 169.128906,20.7664908 169.128906,21.6569921 L169.128906,28.7810026 L167.878037,28.7810026 C167.139328,26.6293288 165.083954,25.0765172 162.668945,25.0765172 C160.253937,25.0765172 158.198936,26.6293288 157.459854,28.7810026 L156.400764,28.7810026 L156.400764,10.1268552 Z" id="Shape"></path>
            </g>
        </g>
    </g>
</svg>