<?xml version="1.0" encoding="UTF-8"?>
<svg width="48px" height="44px" viewBox="0 0 48 44" version="1.1" xmlns="http://www.w3.org/2000/svg" xmlns:xlink="http://www.w3.org/1999/xlink">
    <title>E5D9D274-2700-4278-8E05-9EC1CD342CC9</title>
    <defs>
        <filter id="filter-1">
            <feColorMatrix in="SourceGraphic" type="matrix" values="0 0 0 0 1.000000 0 0 0 0 1.000000 0 0 0 0 1.000000 0 0 0 1.000000 0"></feColorMatrix>
        </filter>
    </defs>
    <g id="Page-1" stroke="none" stroke-width="1" fill="none" fill-rule="evenodd">
        <g id="CD---Affiliate-exclusive-page_D" transform="translate(-617.000000, -1817.000000)">
            <g id="Group-3" transform="translate(459.000000, 1819.000000)" filter="url(#filter-1)">
                <g transform="translate(160.000000, 0.000000)">
                    <g id="Group-27" transform="translate(0.000000, 0.000000)">
                        <path d="M39.840625,25.91875 C37.4,34.409375 29.596875,40.63125 20.315625,40.63125 C9.109375,40.63125 9.23705556e-14,31.521875 9.23705556e-14,20.315625 C9.23705556e-14,9.109375 9.109375,-3.55271368e-15 20.315625,-3.55271368e-15 C30.73125,-3.55271368e-15 39.290625,7.8375 40.49375,17.909375 C40.528125,18.2875 40.5628438,18.665625 40.596875,19.078125" id="Stroke-3" stroke="#D54400" stroke-width="2.0625" stroke-linecap="round" stroke-linejoin="round"></path>
                        <polyline id="Stroke-1" stroke="#D54400" stroke-width="2.0625" stroke-linecap="round" stroke-linejoin="round" points="35.3376375 15.1250344 40.5970125 19.0781594 44.0001375 13.5094094"></polyline>
                        <path d="M24.7844437,24.9563187 C24.7844437,23.9938187 24.5438187,23.2031937 24.0281937,22.6188187 C23.5125687,22.0344437 22.6531937,21.5188187 21.4844437,21.1406937 C21.3125687,21.1063187 21.2438187,21.1750687 21.2438187,21.3125687 L21.2438187,28.1531937 C21.2438187,28.3250687 21.3469437,28.3938187 21.5188187,28.3594437 C23.6844437,27.9813187 24.7844437,26.8469437 24.7844437,24.9563187 M19.0781937,11.8250687 C16.9469437,12.0656937 15.8813187,13.0969437 15.8813187,14.8844437 C15.8813187,16.6031937 16.9813187,17.7719437 19.1469437,18.4594437 C19.2156937,18.4938187 19.2500687,18.4594437 19.2844437,18.4250687 C19.3188187,18.3906937 19.3531937,18.3219437 19.3531937,18.2531937 L19.3531937,12.0313187 C19.3531937,11.8250687 19.2500687,11.7563187 19.0781937,11.8250687 M19.1125687,20.4875687 C15.5031937,19.4563187 13.6813187,17.5656937 13.6813187,14.8500687 C13.6813187,13.4406937 14.1625687,12.3063187 15.0906937,11.4125687 C16.0188187,10.5188187 17.3594437,10.0031937 19.1125687,9.86569375 C19.2844437,9.86569375 19.3875687,9.76256875 19.3875687,9.59069375 L19.3875687,7.80319375 C19.3875687,7.56256875 19.4906937,7.32194375 19.6625687,7.15006875 C19.8344437,6.97819375 20.0750687,6.87506875 20.3156937,6.87506875 C20.5563187,6.87506875 20.7969437,6.97819375 20.9688187,7.15006875 C21.1406937,7.32194375 21.2438187,7.56256875 21.2438187,7.80319375 L21.2438187,9.55631875 C21.2438187,9.72819375 21.3469437,9.83131875 21.5188187,9.83131875 C22.8938187,9.93444375 24.1656937,10.1063187 25.3688187,10.3813187 C25.6781937,10.4500687 25.9188187,10.6219437 26.0906937,10.8625687 C26.2969437,11.1031937 26.4000687,11.3781937 26.4000687,11.6875687 C26.4000687,11.9281937 26.2969437,12.1344437 26.0906937,12.3063187 C25.8844437,12.4781937 25.6438187,12.5125687 25.3688187,12.4094437 C24.0969437,12.0313187 22.8250687,11.8250687 21.5188187,11.7219437 C21.3469437,11.7219437 21.2438187,11.7906937 21.2438187,11.9625687 L21.2438187,18.6656937 C21.2438187,18.8375687 21.3469437,18.9406937 21.5188187,18.9750687 C23.5813187,19.5594437 25.0250687,20.3156937 25.8500687,21.2781937 C26.6750687,22.2406937 27.0875687,23.4438187 27.0875687,24.8875687 C27.0875687,26.4000687 26.6063187,27.6375687 25.6438187,28.5656937 C24.6813187,29.4938187 23.3063187,30.0438187 21.5188187,30.2500687 C21.3469437,30.2844437 21.2438187,30.3875687 21.2438187,30.5594437 L21.2438187,32.3469437 C21.2438187,32.5875687 21.1406937,32.8281937 20.9688187,33.0000687 C20.7969437,33.1719437 20.5563187,33.2750687 20.3156937,33.2750687 C20.0750687,33.2750687 19.8344437,33.1719437 19.6625687,33.0000687 C19.4906937,32.8281937 19.3875687,32.5875687 19.3875687,32.3469437 L19.3875687,30.5938187 C19.3875687,30.4219437 19.3188187,30.3188187 19.1469437,30.3188187 C17.6688187,30.2156937 16.2938187,29.9750687 15.0219437,29.5625687 C14.7125687,29.4594437 14.4719437,29.2875687 14.2656937,29.0125687 C14.0938187,28.7375687 13.9906937,28.4281937 13.9906937,28.1188187 C13.9906937,27.8781937 14.0938187,27.6719437 14.3000687,27.5344437 C14.5063187,27.3969437 14.7469437,27.3625687 14.9875687,27.4656937 C16.3625687,28.0156937 17.7719437,28.3250687 19.1469437,28.3938187 C19.3188187,28.3938187 19.3875687,28.3250687 19.3875687,28.1531937 L19.3875687,20.8313187 C19.3531937,20.6594437 19.2844437,20.5563187 19.1125687,20.4875687" id="Fill-5" fill="#D54400"></path>
                    </g>
                </g>
            </g>
        </g>
    </g>
</svg>